<svg xmlns="http://www.w3.org/2000/svg" width="720" height="520" viewBox="0 0 720 520">
  <rect width="720" height="520" fill="#ffffff" />
  <text x="360" y="28" text-anchor="middle" font-size="22" font-weight="700" fill="#0f172a">Subject-Level ROC Curve</text>
  <line x1="80.00" y1="50" x2="80.00" y2="440" stroke="#e5e7eb" stroke-width="1" /><line x1="80" y1="440.00" x2="690" y2="440.00" stroke="#e5e7eb" stroke-width="1" /><line x1="202.00" y1="50" x2="202.00" y2="440" stroke="#e5e7eb" stroke-width="1" /><line x1="80" y1="362.00" x2="690" y2="362.00" stroke="#e5e7eb" stroke-width="1" /><line x1="324.00" y1="50" x2="324.00" y2="440" stroke="#e5e7eb" stroke-width="1" /><line x1="80" y1="284.00" x2="690" y2="284.00" stroke="#e5e7eb" stroke-width="1" /><line x1="446.00" y1="50" x2="446.00" y2="440" stroke="#e5e7eb" stroke-width="1" /><line x1="80" y1="206.00" x2="690" y2="206.00" stroke="#e5e7eb" stroke-width="1" /><line x1="568.00" y1="50" x2="568.00" y2="440" stroke="#e5e7eb" stroke-width="1" /><line x1="80" y1="128.00" x2="690" y2="128.00" stroke="#e5e7eb" stroke-width="1" /><line x1="690.00" y1="50" x2="690.00" y2="440" stroke="#e5e7eb" stroke-width="1" /><line x1="80" y1="50.00" x2="690" y2="50.00" stroke="#e5e7eb" stroke-width="1" />
  <line x1="80" y1="440" x2="690" y2="440" stroke="#0f172a" stroke-width="2" />
  <line x1="80" y1="50" x2="80" y2="440" stroke="#0f172a" stroke-width="2" />
  <line x1="80.00" y1="440.00" x2="690.00" y2="50.00" stroke="#94a3b8" stroke-width="2" stroke-dasharray="8 6" />
  
  <polyline fill="none" stroke="#14746f" stroke-width="4" points="80.00,440.00 80.00,432.04 80.00,424.08 96.49,424.08 96.49,416.12 129.46,416.12 129.46,360.41 145.95,360.41 145.95,344.49 162.43,344.49 162.43,264.90 178.92,264.90 178.92,233.06 178.92,217.14 195.41,217.14 195.41,209.18 228.38,209.18 228.38,185.31 244.86,185.31 244.86,169.39 261.35,169.39 261.35,153.47 261.35,145.51 277.84,145.51 277.84,137.55 310.81,137.55 310.81,121.63 343.78,121.63 343.78,113.67 360.27,113.67 360.27,105.71 459.19,105.71 459.19,97.76 475.68,97.76 475.68,89.80 508.65,89.80 525.14,89.80 525.14,81.84 607.57,81.84 607.57,65.92 673.51,65.92 673.51,50.00 690.00,50.00" />
  <text x="80.00" y="475" text-anchor="middle" font-size="12" fill="#475569">{tick:.1f}</text><text x="64" y="444.00" text-anchor="end" font-size="12" fill="#475569">{tick:.1f}</text><text x="202.00" y="475" text-anchor="middle" font-size="12" fill="#475569">{tick:.1f}</text><text x="64" y="366.00" text-anchor="end" font-size="12" fill="#475569">{tick:.1f}</text><text x="324.00" y="475" text-anchor="middle" font-size="12" fill="#475569">{tick:.1f}</text><text x="64" y="288.00" text-anchor="end" font-size="12" fill="#475569">{tick:.1f}</text><text x="446.00" y="475" text-anchor="middle" font-size="12" fill="#475569">{tick:.1f}</text><text x="64" y="210.00" text-anchor="end" font-size="12" fill="#475569">{tick:.1f}</text><text x="568.00" y="475" text-anchor="middle" font-size="12" fill="#475569">{tick:.1f}</text><text x="64" y="132.00" text-anchor="end" font-size="12" fill="#475569">{tick:.1f}</text><text x="690.00" y="475" text-anchor="middle" font-size="12" fill="#475569">{tick:.1f}</text><text x="64" y="54.00" text-anchor="end" font-size="12" fill="#475569">{tick:.1f}</text>
  <text x="360" y="508" text-anchor="middle" font-size="16" fill="#0f172a">False Positive Rate</text>
  <text x="24" y="260" text-anchor="middle" font-size="16" fill="#0f172a" transform="rotate(-90 24 260)">True Positive Rate</text>
</svg>
