<svg xmlns="http://www.w3.org/2000/svg" width="720" height="520" viewBox="0 0 720 520">
  <rect width="720" height="520" fill="#ffffff" />
  <text x="360" y="28" text-anchor="middle" font-size="22" font-weight="700" fill="#0f172a">Subject-Level Precision-Recall Curve</text>
  <line x1="80.00" y1="50" x2="80.00" y2="440" stroke="#e5e7eb" stroke-width="1" /><line x1="80" y1="440.00" x2="690" y2="440.00" stroke="#e5e7eb" stroke-width="1" /><line x1="202.00" y1="50" x2="202.00" y2="440" stroke="#e5e7eb" stroke-width="1" /><line x1="80" y1="362.00" x2="690" y2="362.00" stroke="#e5e7eb" stroke-width="1" /><line x1="324.00" y1="50" x2="324.00" y2="440" stroke="#e5e7eb" stroke-width="1" /><line x1="80" y1="284.00" x2="690" y2="284.00" stroke="#e5e7eb" stroke-width="1" /><line x1="446.00" y1="50" x2="446.00" y2="440" stroke="#e5e7eb" stroke-width="1" /><line x1="80" y1="206.00" x2="690" y2="206.00" stroke="#e5e7eb" stroke-width="1" /><line x1="568.00" y1="50" x2="568.00" y2="440" stroke="#e5e7eb" stroke-width="1" /><line x1="80" y1="128.00" x2="690" y2="128.00" stroke="#e5e7eb" stroke-width="1" /><line x1="690.00" y1="50" x2="690.00" y2="440" stroke="#e5e7eb" stroke-width="1" /><line x1="80" y1="50.00" x2="690" y2="50.00" stroke="#e5e7eb" stroke-width="1" />
  <line x1="80" y1="440" x2="690" y2="440" stroke="#0f172a" stroke-width="2" />
  <line x1="80" y1="50" x2="80" y2="440" stroke="#0f172a" stroke-width="2" />
  
  <line x1="80.00" y1="217.79" x2="690.00" y2="217.79" stroke="#f59e0b" stroke-width="2" stroke-dasharray="8 6" />
  <polyline fill="none" stroke="#14746f" stroke-width="4" points="690.00,217.79 690.00,215.18 677.55,217.14 665.10,219.16 665.10,216.46 665.10,213.70 665.10,210.88 665.10,207.97 652.65,210.00 640.20,212.08 640.20,209.08 640.20,206.00 640.20,202.84 640.20,199.59 640.20,196.25 627.76,198.31 627.76,194.86 627.76,187.65 615.31,189.70 615.31,185.91 602.86,188.00 602.86,184.06 602.86,180.00 602.86,175.81 602.86,171.48 602.86,167.00 602.86,162.37 590.41,164.31 590.41,159.47 577.96,161.43 577.96,156.36 577.96,151.11 553.06,155.00 553.06,143.60 540.61,145.51 540.61,139.38 528.16,141.28 503.27,145.33 503.27,138.64 490.82,140.70 478.37,142.86 478.37,135.61 465.92,137.75 453.47,140.00 441.02,142.37 441.02,134.32 441.02,125.83 428.57,128.00 428.57,118.82 403.67,123.12 391.22,125.48 378.78,128.00 366.33,130.69 353.88,133.57 353.88,122.22 341.43,125.00 328.98,128.00 316.53,131.25 304.08,134.78 291.63,138.64 279.18,142.86 266.73,147.50 254.29,152.63 241.84,158.33 229.39,164.71 229.39,147.50 216.94,154.00 204.49,161.43 204.49,140.00 192.04,147.50 179.59,156.36 167.14,167.00 154.69,180.00 142.24,196.25 129.80,217.14 117.35,245.00 117.35,206.00 117.35,147.50 104.90,180.00 104.90,50.00 92.45,50.00 80.00,50.00" />
  <text x="80.00" y="475" text-anchor="middle" font-size="12" fill="#475569">{tick:.1f}</text><text x="64" y="444.00" text-anchor="end" font-size="12" fill="#475569">{tick:.1f}</text><text x="202.00" y="475" text-anchor="middle" font-size="12" fill="#475569">{tick:.1f}</text><text x="64" y="366.00" text-anchor="end" font-size="12" fill="#475569">{tick:.1f}</text><text x="324.00" y="475" text-anchor="middle" font-size="12" fill="#475569">{tick:.1f}</text><text x="64" y="288.00" text-anchor="end" font-size="12" fill="#475569">{tick:.1f}</text><text x="446.00" y="475" text-anchor="middle" font-size="12" fill="#475569">{tick:.1f}</text><text x="64" y="210.00" text-anchor="end" font-size="12" fill="#475569">{tick:.1f}</text><text x="568.00" y="475" text-anchor="middle" font-size="12" fill="#475569">{tick:.1f}</text><text x="64" y="132.00" text-anchor="end" font-size="12" fill="#475569">{tick:.1f}</text><text x="690.00" y="475" text-anchor="middle" font-size="12" fill="#475569">{tick:.1f}</text><text x="64" y="54.00" text-anchor="end" font-size="12" fill="#475569">{tick:.1f}</text>
  <text x="360" y="508" text-anchor="middle" font-size="16" fill="#0f172a">Recall</text>
  <text x="24" y="260" text-anchor="middle" font-size="16" fill="#0f172a" transform="rotate(-90 24 260)">Precision</text>
</svg>
